<svg width="302" height="304" viewBox="0 0 302 304" fill="none" xmlns="http://www.w3.org/2000/svg">
<ellipse cx="151" cy="152" rx="151" ry="152" fill="white"/>
<path d="M164.679 177.281C164.422 177.314 164.161 177.314 163.904 177.281C163.235 176.976 162.636 176.535 161.967 176.196C159.426 175.052 156.946 173.785 154.538 172.4C151.932 170.672 148.798 169.825 146.333 167.893C142.44 166.302 138.724 164.338 135.241 162.029C132.87 160.641 130.631 159.053 128.551 157.284C127.76 156.533 126.9 155.852 125.98 155.251C124.591 154.477 123.323 153.519 122.212 152.404C121.473 151.624 120.874 150.675 120.064 149.964C118.211 148.247 116.622 146.284 115.346 144.134C114.889 143.559 114.587 142.883 114.465 142.169C114.342 141.3 114.118 140.447 113.796 139.627L110.486 142.27C109.213 143.65 107.784 144.889 106.226 145.964C105.718 146.243 105.303 146.655 105.028 147.151C104.151 148.676 103.125 150.117 101.965 151.455C101.142 152.327 100.455 153.309 99.9227 154.37C99.2978 156.071 98.5688 157.734 97.7395 159.352C97.4378 160.074 97.2824 160.845 97.2817 161.623C97.2817 163.283 97.2817 165.012 97.2817 166.198C97.5181 166.948 97.8003 167.683 98.1268 168.401C98.7606 169.384 98.9367 170.57 99.6762 171.553C100.603 172.815 101.602 174.026 102.669 175.18C103.894 176.378 105.187 177.51 106.543 178.569C108.948 180.553 111.611 182.228 114.465 183.551C117.048 184.816 119.618 186.036 122.177 187.211C124.431 188.262 126.684 189.177 128.903 190.194C130.024 190.73 131.205 191.139 132.424 191.414C133.656 191.719 134.748 192.295 135.945 192.702C138.058 193.414 140.206 194.159 142.319 194.939C144.431 195.718 146.72 196.43 148.868 197.243L154.256 199.277C155.383 199.807 156.563 200.227 157.777 200.531C158.979 200.925 160.155 201.389 161.298 201.92C163.033 202.601 164.696 203.441 166.263 204.428C168.059 205.411 169.785 206.36 171.721 207.309C172.038 205.547 172.144 186.771 171.721 181.992L164.679 177.281ZM116.719 140.847C116.719 141.016 117.071 141.152 117.142 141.355C117.493 142.452 117.941 143.517 118.48 144.541C119.421 146.012 120.532 147.376 121.79 148.608C123.901 150.992 126.261 153.161 128.832 155.081C129.924 155.793 130.839 156.674 131.966 157.352C133.938 158.572 135.98 159.725 137.952 161.013C141.342 163.219 144.87 165.223 148.516 167.012C149.38 167.345 150.215 167.742 151.016 168.198C153.259 169.516 155.575 170.715 157.953 171.79C161.862 173.756 165.841 175.654 169.538 177.993C169.996 178.264 170.207 179.145 171.158 178.704V177.349C171.158 172.977 171.158 168.604 171.158 164.232C171.158 163.758 170.947 163.114 171.158 162.843C171.433 162.474 171.607 162.045 171.662 161.594C171.717 161.144 171.653 160.687 171.475 160.267C171.095 158.691 170.976 157.066 171.123 155.454C171.123 153.997 171.123 152.54 171.123 151.319C169.936 149.81 168.654 148.373 167.284 147.015C165.7 145.626 163.939 144.405 162.284 143.05C160.066 141.186 157.601 139.661 155.242 137.864C152.883 136.068 150.488 134.475 148.199 132.408C145.205 129.911 142.534 127.078 140.241 123.968C139.279 122.562 138.499 121.049 137.917 119.461C137.671 118.783 137.495 118.037 137.248 117.156C136.262 117.97 135.206 118.207 134.325 118.885C133.445 119.562 132.177 119.698 131.297 120.308C130.417 120.918 129.008 121.46 127.987 122.172C126.207 123.458 124.502 124.838 122.881 126.307C121.402 127.689 120.004 129.149 118.691 130.679C118.392 131.017 118.164 131.409 118.022 131.831C117.551 132.93 117.174 134.063 116.895 135.221C116.749 136.515 116.69 137.817 116.719 139.118C116.684 139.762 116.719 140.338 116.719 140.847ZM171.933 210.597L170.454 209.648C169.156 208.857 167.789 208.177 166.369 207.614C163.622 206.259 160.805 205.174 158.024 203.92C157.083 203.434 156.106 203.014 155.101 202.666C150.735 201.446 146.509 199.853 142.283 198.328C139.995 197.481 137.741 196.43 135.452 195.65C131.931 194.43 128.41 192.736 124.888 191.346C121.367 189.957 118.867 188.33 115.804 186.906C113.972 186.08 112.237 185.069 110.627 183.89C109.142 182.681 107.591 181.549 105.979 180.501C105.275 180.094 104.359 179.721 104.043 179.111C103.303 177.789 101.965 177.044 101.014 175.722C100.38 177.247 99.7818 178.637 99.2536 180.094C98.7254 181.551 98.5141 182.432 98.162 183.483C97.7589 184.671 97.499 185.899 97.3873 187.143C97.3873 188.397 97.0352 189.651 97 190.906C97.0773 191.759 97.2066 192.608 97.3873 193.447C97.564 194.732 97.8466 196.002 98.2324 197.243C98.8423 199.055 99.5594 200.832 100.38 202.564C100.38 202.734 100.38 202.971 100.627 203.073C102.409 204.997 104.352 206.776 106.437 208.394C107.458 209.038 108.338 209.987 109.395 210.529C112.592 212.266 115.923 213.762 119.36 215.003C120.406 215.23 121.422 215.571 122.388 216.02C123.374 216.664 124.607 216.02 125.487 216.799C127.318 216.799 129.008 217.884 130.769 217.646C131.544 218.528 132.706 217.646 133.692 218.392C134.678 219.138 135.699 218.663 136.685 218.9C137.704 219.009 138.716 219.179 139.713 219.409C140.664 219.714 141.685 219.409 142.354 219.782C143.023 220.154 144.15 219.985 145.03 220.121C145.312 220.121 145.734 220.121 145.875 220.121C146.439 220.798 147.213 220.392 147.882 220.527C148.551 220.663 149.185 220.832 149.854 220.934C151.53 220.99 153.2 221.148 154.854 221.408C156.016 221.68 157.249 221.408 158.376 221.815C160.383 222.459 162.566 222.29 164.538 223.001C166.991 222.994 169.409 223.564 171.58 224.662C171.58 221.036 171.58 217.511 171.58 213.986C171.616 213.037 171.792 212.054 171.933 210.597ZM170.137 227.543C168.975 227.17 168.13 227.001 167.32 226.662C166.28 226.379 165.221 226.164 164.151 226.018C161.932 225.442 159.679 225.069 157.425 224.594C156.367 224.275 155.258 224.137 154.15 224.188C153.446 223.408 152.53 223.849 151.72 223.815C150.911 223.781 150.206 223.273 149.291 223.306C148.099 223.371 146.905 223.222 145.77 222.866C144.115 222.29 142.248 222.256 140.664 221.714C139.678 221.408 138.657 221.714 137.565 221.341C136.575 221.094 135.559 220.958 134.537 220.934C132.776 220.595 131.015 220.154 129.431 219.68C127.846 219.205 125.452 218.494 123.445 217.985C121.438 217.477 119.43 216.935 117.423 216.426C116.888 216.361 116.359 216.259 115.839 216.121C114.184 215.41 112.529 214.698 110.944 213.918C109.058 213.051 107.265 212.007 105.592 210.8C103.721 209.685 102.171 208.135 101.085 206.293C101.085 208.767 101.085 210.699 101.085 212.63C101.134 213.773 101.299 214.908 101.578 216.02C102.022 217.778 102.575 219.51 103.233 221.205C103.714 222.695 104.478 224.085 105.486 225.306C106.156 225.978 106.779 226.691 107.353 227.441C108.742 229.546 110.548 231.365 112.67 232.796C113.325 233.24 114.02 233.625 114.747 233.949C116.754 234.965 118.797 235.914 120.804 236.897C122.67 236.66 124.325 237.745 126.086 237.778C127.271 237.864 128.448 238.034 129.607 238.287C130.996 238.614 132.408 238.841 133.832 238.965C135.69 239.204 137.573 239.204 139.431 238.965C141.192 238.524 142.953 238.693 144.713 238.321C146.474 237.948 148.657 237.778 150.594 237.372C152.53 236.965 153.481 236.694 154.89 236.287C157.735 235.396 160.493 234.261 163.129 232.898C165.643 231.378 167.99 229.618 170.137 227.645V227.543ZM139.607 119.088C140.206 120.308 140.558 121.427 141.121 122.308C141.96 123.684 142.952 124.968 144.079 126.138C147.082 129.198 150.357 132 153.868 134.509C154.784 135.153 155.629 135.932 156.615 136.576C158.129 137.593 159.749 138.474 161.122 139.593C164.218 141.8 167.17 144.188 169.961 146.744C170.256 146.997 170.574 147.223 170.911 147.422C170.911 147.185 171.158 147.083 171.158 146.947C171.158 143.355 171.158 139.762 171.158 136.17C171.113 135.845 171.03 135.527 170.911 135.221C170.642 134.106 170.642 132.946 170.911 131.831C171.176 130.647 171.176 129.423 170.911 128.239C170.578 127.051 170.578 125.8 170.911 124.612C171.275 123.599 171.348 122.51 171.123 121.46C170.911 120.681 170.911 119.901 170.735 119.19C169.89 118.681 169.151 118.105 168.306 117.698C166.262 116.324 164.299 114.841 162.425 113.259C161.827 111.835 160.312 111.089 159.784 109.53C159.275 108.533 158.623 107.609 157.847 106.785C156.99 105.324 156.406 103.73 156.122 102.074C156.158 100.914 155.942 99.7598 155.488 98.6849L154.08 99.4644C150.995 101.03 148.122 102.954 145.523 105.192C145.136 105.565 144.431 105.701 144.22 106.107C143.727 107.158 142.706 107.7 142.072 108.581C140.671 110.192 139.822 112.181 139.643 114.275L139.607 119.088ZM170.278 70.1138C169.82 70.6221 169.644 70.9611 169.327 71.0966C167.661 72.1832 166.125 73.445 164.749 74.8587C163.501 76.129 162.325 77.4641 161.228 78.8579C160.627 79.3958 160.158 80.0557 159.855 80.7898C158.758 83.2096 157.806 85.6878 157.002 88.2122C156.767 89.8801 156.426 91.5326 155.981 93.1604C155.981 93.5671 155.981 94.0755 156.157 94.5161C156.262 94.9052 156.332 95.302 156.369 95.7024C156.226 97.4927 156.515 99.2905 157.214 100.956C157.883 102.582 158.305 104.345 159.01 105.87C159.482 106.739 160.048 107.556 160.7 108.31C161.737 110.04 163.03 111.615 164.538 112.987L166.51 114.479C166.827 114.75 167.108 115.089 167.425 115.326C167.742 115.563 168.059 115.597 168.306 115.8C168.552 116.004 168.904 116.41 169.221 116.682C169.538 116.953 169.679 117.292 170.172 117.359L170.278 70.1138ZM170.278 43C169.714 44.2201 168.939 44.8302 168.834 45.8131C168.817 46.3348 168.71 46.8502 168.517 47.3382C167.587 49.843 166.869 52.4159 166.369 55.0317C165.876 57.2008 165.735 59.4377 165.207 61.6068C164.855 62.9964 165.207 64.5215 164.82 66.0128C164.642 68.4387 164.642 70.8737 164.82 73.2996C166.017 72.6896 166.58 71.6389 167.672 71.0627C168.684 70.3426 169.595 69.4996 170.383 68.5547L170.278 43Z" fill="#0B574A"/>
<path d="M170.014 238.946H172.162C172.179 238.709 172.179 238.471 172.162 238.234C172.162 237.624 172.162 237.048 172.162 236.472C172.162 234.472 172.162 232.473 172.162 230.473C172.162 228.473 172.162 226.474 172.162 224.474C172.162 224.237 172.162 222 172.162 222H170.014C169.995 222.248 169.995 222.497 170.014 222.746C170.014 223.322 170.014 223.898 170.014 224.474V236.472C170.014 236.709 170.014 238.946 170.014 238.946V238.946Z" fill="#0B574A"/>
</svg>
